# xmcd
#
# Track frame offsets:
#	150
#	14137
#	25646
#	48079
#	60860
#	78870
#	95340
#	112095
#	131653
#	148654
#	158542
#	172084
#
# Disc length: 2534 seconds
# Revision: 0
# Processed by: cddbd v1.5.2PL0 Copyright (c) Steve Scherf et al.
# Submitted via: dBpowerAMP V12.0
#
DISCID=9209e40c
DTITLE=Pineridge - Road Too Long
DYEAR=2011
DGENRE=Country
TTITLE0=Kentucky Home
TTITLE1=Rabbit Song
TTITLE2=Killer's Lullaby
TTITLE3=Road Too Long
TTITLE4=Fly Away Angel
TTITLE5=Leaving California
TTITLE6=Smokey Mountain Smoke
TTITLE7=Say Goodbye I'm Gone
TTITLE8=Sometimes
TTITLE9=Mustang
TTITLE10=Bluegrass In Heaven
TTITLE11=Wayfaring Stranger
EXTD=
EXTT0=
EXTT1=
EXTT2=
EXTT3=
EXTT4=
EXTT5=
EXTT6=
EXTT7=
EXTT8=
EXTT9=
EXTT10=
EXTT11=
PLAYORDER=
